<svg xmlns="http://www.w3.org/2000/svg" version="1.1" xmlns:xlink="http://www.w3.org/1999/xlink" xmlns:svgjs="http://svgjs.dev/svgjs" width="1440" height="560" preserveAspectRatio="none" viewBox="0 0 1440 560"><g mask="url(&quot;#SvgjsMask1026&quot;)" fill="none"><rect width="1440" height="560" x="0" y="0" fill="rgba(255, 253, 243, 1)"></rect><path d="M 0,168 C 57.6,147.4 172.8,61.4 288,65 C 403.2,68.6 460.8,192 576,186 C 691.2,180 748.8,42.8 864,35 C 979.2,27.2 1036.8,134.4 1152,147 C 1267.2,159.6 1382.4,107.8 1440,98L1440 560L0 560z" fill="rgba(255, 249, 227, 1)"></path><path d="M 0,546 C 96,515.4 288,412.2 480,393 C 672,373.8 768,453 960,450 C 1152,447 1344,392.4 1440,378L1440 560L0 560z" fill="rgba(235, 233, 217, 1)"></path></g><defs><mask id="SvgjsMask1026"><rect width="1440" height="560" fill="#ffffff"></rect></mask></defs></svg>